<svg width="369" height="369" viewBox="0 0 369 369" fill="none" xmlns="http://www.w3.org/2000/svg">
<path d="M184.275 186.96C184.051 186.96 183.831 187.027 183.645 187.152C183.458 187.276 183.313 187.454 183.227 187.662C183.141 187.869 183.119 188.098 183.164 188.318C183.208 188.538 183.317 188.74 183.476 188.898C183.635 189.057 183.838 189.164 184.058 189.207C184.279 189.25 184.507 189.227 184.714 189.14C184.921 189.053 185.098 188.906 185.221 188.719C185.345 188.532 185.411 188.312 185.409 188.087C185.409 187.939 185.38 187.791 185.323 187.654C185.266 187.517 185.182 187.392 185.077 187.288C184.971 187.183 184.846 187.1 184.709 187.044C184.571 186.988 184.424 186.959 184.275 186.96Z" fill="#6B4088"/>
<path d="M164.171 68.3882C164.744 61.9258 159.833 57.4581 153.924 56.2421C149.907 55.3882 145.726 55.6683 141.627 55.6341C138.28 55.6341 134.967 54.8759 131.688 54.2679C131.469 54.2189 131.241 54.2377 131.033 54.322C130.826 54.4062 130.649 54.5518 130.526 54.7392C128.613 57.2805 126.94 59.9516 124.822 62.3494C122.253 65.239 119.227 67.6641 116.932 70.8134C113.154 76.0257 112.075 83.1098 117.547 87.6731C118.558 88.5134 120.013 87.072 118.995 86.2249C112.43 80.7256 117.198 73.1702 121.782 68.3063C123.948 66.0178 126.291 63.9615 128.217 61.4749C129.645 59.6305 130.895 57.6562 132.316 55.7981L131.155 56.2695C136.408 57.212 141.734 57.6897 147.072 57.6972C153.828 57.7724 162.852 59.7466 162.101 68.4087C161.985 69.7204 164.034 69.7135 164.15 68.4087L164.171 68.3882Z" fill="#6B4088"/>
<path d="M252.015 88.1031C257.104 83.8404 256.606 77.1388 253.21 72.0426C250.99 68.7158 247.937 66.0311 245.149 63.2029C242.793 60.8119 240.948 57.9428 239.056 55.1829C238.937 54.9938 238.761 54.8467 238.554 54.7622C238.347 54.6777 238.119 54.66 237.901 54.7115C234.752 55.1419 231.685 55.8524 228.502 56.0778C224.512 56.3169 220.577 56.0027 216.594 56.5423C210.323 57.3963 204.845 62.0689 205.446 68.8387C205.562 70.1435 207.618 70.1572 207.495 68.8387C206.757 60.566 215.01 58.4141 221.581 58.1545C224.826 58.0316 228.037 58.2433 231.268 57.8813C233.68 57.608 236.05 57.041 238.448 56.7131L237.287 56.2418C240.191 60.4829 243.482 64.4461 247.117 68.0805C251.953 72.958 257.446 80.9165 250.567 86.6822C249.549 87.5293 251.011 88.9707 252.015 88.1304V88.1031Z" fill="#6B4088"/>
<path d="M300.176 164.171C306.639 164.751 311.106 159.833 312.322 153.924C313.176 149.907 312.896 145.726 312.93 141.627C312.93 138.28 313.682 134.967 314.297 131.688C314.347 131.47 314.329 131.242 314.244 131.036C314.16 130.829 314.014 130.653 313.825 130.533C311.291 128.607 308.62 126.947 306.222 124.822C303.332 122.254 300.907 119.227 297.758 116.939C292.546 113.154 285.461 112.075 280.898 117.547C280.051 118.558 281.499 120.013 282.346 119.002C287.846 112.43 295.401 117.199 300.265 121.789C302.553 123.948 304.61 126.291 307.096 128.217C308.948 129.645 310.922 130.889 312.78 132.316L312.309 131.155C311.363 136.41 310.883 141.739 310.874 147.079C310.806 153.828 308.825 162.859 300.169 162.108C298.858 161.992 298.865 164.041 300.169 164.157L300.176 164.171Z" fill="#6B4088"/>
<path d="M280.447 252.015C284.71 257.104 291.411 256.606 296.5 253.21C299.827 250.997 302.519 247.937 305.347 245.149C307.738 242.793 310.607 240.948 313.367 239.056C313.556 238.937 313.703 238.761 313.788 238.554C313.872 238.347 313.89 238.119 313.838 237.901C313.401 234.759 312.691 231.685 312.472 228.501C312.24 224.512 312.547 220.577 312.008 216.594C311.16 210.323 306.481 204.844 299.711 205.452C298.406 205.569 298.4 207.618 299.711 207.502C307.991 206.757 310.143 215.016 310.395 221.588C310.525 224.826 310.313 228.037 310.675 231.268C310.942 233.686 311.509 236.05 311.844 238.448L312.315 237.293C308.072 240.195 304.106 243.484 300.469 247.117C295.599 251.953 287.64 257.446 281.875 250.567C281.027 249.556 279.586 251.011 280.426 252.015H280.447Z" fill="#6B4088"/>
<path d="M203.895 300.961C203.335 307.28 208.144 311.632 213.903 312.848C217.831 313.681 221.916 313.408 225.899 313.442C229.164 313.442 232.402 314.18 235.606 314.774C235.824 314.824 236.051 314.805 236.258 314.721C236.464 314.636 236.64 314.49 236.761 314.303C238.632 311.823 240.265 309.213 242.342 306.877C244.849 304.049 247.807 301.678 250.047 298.598C253.75 293.495 254.829 286.574 249.446 282.093C248.435 281.253 246.98 282.694 247.998 283.541C254.406 288.904 249.747 296.275 245.266 301.016C243.155 303.257 240.859 305.272 238.974 307.717C237.608 309.528 236.357 311.454 234.984 313.271L236.146 312.8C231.007 311.885 225.797 311.427 220.577 311.434C213.992 311.358 205.186 309.446 205.938 300.995C206.06 299.677 204.004 299.691 203.888 300.995L203.895 300.961Z" fill="#6B4088"/>
<path d="M118.06 281.663C113.073 285.83 113.565 292.395 116.885 297.375C119.057 300.627 122.042 303.25 124.768 306.017C127.07 308.353 128.867 311.161 130.718 313.852C130.837 314.041 131.013 314.188 131.22 314.273C131.427 314.357 131.655 314.375 131.873 314.323C134.947 313.907 137.946 313.203 141.054 313.019C144.955 312.786 148.801 313.094 152.667 312.568C158.815 311.734 164.171 307.151 163.597 300.517C163.481 299.213 161.432 299.199 161.548 300.517C162.272 308.592 154.211 310.689 147.803 310.935C144.64 311.058 141.498 310.853 138.342 311.208C135.978 311.468 133.669 312.028 131.319 312.349L132.481 312.821C129.64 308.673 126.422 304.797 122.869 301.241C118.148 296.46 112.786 288.726 119.501 283.104C120.512 282.25 119.057 280.809 118.053 281.656L118.06 281.663Z" fill="#6B4088"/>
<path d="M68.3885 204.38C61.9329 203.799 57.4584 208.718 56.2424 214.627C55.3953 218.644 55.6754 222.824 55.6412 226.923C55.6412 230.271 54.8761 233.584 54.275 236.863C54.2254 237.08 54.2441 237.308 54.3285 237.514C54.4128 237.721 54.5587 237.897 54.7463 238.017C57.2807 239.944 59.9586 241.611 62.3496 243.728C65.2461 246.297 67.6644 249.323 70.8204 251.612C76.0328 255.396 83.1169 256.476 87.6802 250.997C88.5204 249.993 87.079 248.538 86.2319 249.549C80.6849 256.066 73.1704 251.297 68.2929 246.686C66.0044 244.528 63.9481 242.184 61.4615 240.258C59.6102 238.83 57.636 237.58 55.7847 236.159L56.256 237.321C57.1876 232.068 57.6584 226.745 57.6633 221.41C57.7384 214.661 59.7127 205.637 68.368 206.381C69.6864 206.498 69.6728 204.448 68.368 204.332L68.3885 204.38Z" fill="#6B4088"/>
<path d="M88.1042 116.536C83.8414 111.446 77.1331 111.945 72.0437 115.34C68.7168 117.561 66.0321 120.614 63.204 123.401C60.813 125.758 57.937 127.596 55.184 129.488C54.995 129.609 54.8483 129.786 54.7639 129.994C54.6795 130.202 54.6616 130.431 54.7126 130.649C55.143 133.792 55.8534 136.866 56.0789 140.049C56.318 144.039 56.0037 147.974 56.5434 151.956C57.3973 158.227 62.07 163.706 68.8398 163.105C70.1446 162.982 70.1583 160.933 68.8398 161.056C60.5671 161.793 58.4084 153.541 58.1556 146.963C58.0326 143.725 58.2376 140.514 57.8823 137.283C57.6091 134.864 57.0421 132.501 56.7142 130.103L56.2428 131.264C60.4782 128.352 64.4407 125.062 68.0815 121.434C72.9591 116.597 80.9176 111.105 86.6833 117.984C87.5303 119.002 88.9717 117.54 88.1315 116.536H88.1042Z" fill="#6B4088"/>
<path d="M209.995 69.6248C213.411 63.0394 209.565 56.9117 203.847 53.4824C200.677 51.5901 197.139 50.4493 193.785 48.9464C190.82 47.5801 188.115 45.7356 185.396 43.9732C185.239 43.8826 185.061 43.835 184.88 43.835C184.699 43.835 184.521 43.8826 184.364 43.9732C181.789 45.4761 179.37 47.2112 176.727 48.5775C173.202 50.4219 169.369 51.5559 165.872 53.5029C160.038 56.7614 156.362 63.1829 159.723 69.6453C160.331 70.8203 162.101 69.7819 161.493 68.6138C157.551 61.0173 164.977 55.9553 170.947 53.2569C173.489 52.1093 176.119 51.2075 178.598 49.9164C180.914 48.7073 183.005 47.1839 185.252 45.8176C184.624 46.1865 184.234 45.6605 185.293 46.3641C186.659 47.259 188.026 48.1061 189.426 48.9395C192.183 50.4457 195.038 51.7648 197.972 52.888C204.168 55.5045 212.318 60.6621 208.219 68.6001C207.611 69.7683 209.38 70.8066 209.988 69.6317L209.995 69.6248Z" fill="#6B4088"/>
<path d="M283.576 121.386C289.601 119.507 291.985 113.653 291.091 107.792C290.407 103.399 288.262 99.3892 286.698 95.2836C285.537 92.2505 284.963 89.0056 284.28 85.8427C284.238 85.6743 284.152 85.5197 284.033 85.3939C283.913 85.2682 283.763 85.1757 283.597 85.1254C280.434 84.2988 277.237 83.7591 274.128 82.6934C269.913 81.2315 266.054 79.1685 261.627 78.2941C255.814 77.1464 249.85 79.9814 248.026 85.8085C247.63 87.0723 249.611 87.6052 250.007 86.3482C252.261 79.1275 260.001 79.5783 265.862 81.5663C269.073 82.6388 272.079 84.2168 275.31 85.2279C277.804 86.0066 280.379 86.396 282.893 87.0518C282.326 86.9015 282.305 86.1911 282.415 86.7717C282.497 87.2021 282.592 87.6256 282.681 88.056C283.036 89.7775 283.453 91.4717 283.911 93.1727C284.792 96.4312 286.315 99.4644 287.511 102.614C289.786 108.605 290.667 117.028 283.043 119.405C281.786 119.801 282.36 121.776 283.59 121.379L283.576 121.386Z" fill="#6B4088"/>
<path d="M298.925 209.995C305.511 213.41 311.639 209.564 315.061 203.846C316.96 200.677 318.101 197.138 319.604 193.784C320.929 190.819 322.815 188.114 324.57 185.402C324.663 185.244 324.711 185.065 324.711 184.883C324.711 184.7 324.663 184.521 324.57 184.364C323.074 181.802 321.366 179.383 319.986 176.747C318.142 173.215 317.015 169.382 315.061 165.885C311.809 160.051 305.388 156.376 298.925 159.737C297.75 160.345 298.789 162.114 299.957 161.506C307.553 157.564 312.609 164.99 315.307 170.96C316.461 173.509 317.356 176.139 318.654 178.612C319.863 180.927 321.387 183.018 322.719 185.265C322.357 184.637 322.883 184.254 322.179 185.313C321.284 186.679 320.43 188.046 319.604 189.446C318.104 192.195 316.794 195.044 315.683 197.972C313.066 204.161 307.902 212.317 299.971 208.219C298.802 207.611 297.764 209.38 298.939 209.988L298.925 209.995Z" fill="#6B4088"/>
<path d="M247.157 283.575C249.043 289.607 254.89 291.985 260.759 291.09C265.144 290.406 269.161 288.261 273.26 286.69C276.293 285.536 279.545 284.955 282.708 284.279C282.873 284.227 283.022 284.134 283.142 284.008C283.261 283.883 283.347 283.729 283.391 283.562C284.217 280.399 284.757 277.202 285.823 274.1C287.285 269.878 289.341 266.019 290.222 261.592C291.37 255.785 288.535 249.822 282.708 247.998C281.444 247.601 280.904 249.576 282.161 249.972C289.389 252.226 288.938 259.966 286.943 265.827C285.864 269.038 284.293 272.051 283.282 275.275C282.503 277.769 282.113 280.344 281.458 282.858C281.601 282.291 282.318 282.27 281.738 282.38L280.447 282.646C278.732 283.001 277.031 283.425 275.337 283.883C272.071 284.764 269.038 286.28 265.889 287.476C259.905 289.751 251.482 290.632 249.104 283.015C248.708 281.758 246.734 282.291 247.123 283.555L247.157 283.575Z" fill="#6B4088"/>
<path d="M159.122 299.718C155.782 306.18 159.532 312.171 165.147 315.525C168.249 317.377 171.705 318.49 174.985 319.959C177.835 321.37 180.575 322.993 183.182 324.816C183.34 324.908 183.519 324.957 183.701 324.957C183.884 324.957 184.063 324.908 184.22 324.816C186.728 323.361 189.084 321.687 191.667 320.341C194.843 318.675 198.314 317.609 201.497 315.956C207.536 312.8 211.792 306.467 208.328 299.718C207.72 298.549 205.958 299.581 206.559 300.756C210.596 308.571 202.556 313.449 196.544 316.065C192.011 318.101 187.603 320.407 183.346 322.971C183.975 322.603 184.378 323.135 183.346 322.439C182.021 321.564 180.675 320.731 179.309 319.925C177.031 318.635 174.658 317.521 172.211 316.591C165.919 314.029 156.629 309.077 160.946 300.756C161.547 299.581 159.778 298.549 159.177 299.718H159.122Z" fill="#6B4088"/>
<path d="M85.0023 247.164C78.9771 249.043 76.593 254.897 77.4879 260.759C78.171 265.151 80.316 269.168 81.8872 273.267C83.0417 276.3 83.6224 279.545 84.2987 282.708C84.3476 282.869 84.4356 283.016 84.5547 283.135C84.6739 283.254 84.8206 283.342 84.9818 283.391C88.1447 284.218 91.3418 284.757 94.4432 285.823C98.6582 287.285 102.525 289.348 106.951 290.222C112.758 291.37 118.722 288.535 120.546 282.708C120.942 281.444 118.961 280.911 118.572 282.168C116.317 289.389 108.577 288.938 102.709 286.95C99.5053 285.878 96.4926 284.3 93.2614 283.288C90.7748 282.51 88.1994 282.12 85.6786 281.465C86.2525 281.608 86.273 282.325 86.1568 281.745C86.0748 281.314 85.986 280.891 85.8972 280.46C85.5352 278.739 85.1185 277.045 84.6608 275.344C83.7795 272.085 82.263 269.052 81.0675 265.903C78.7858 259.912 77.9114 251.489 85.5283 249.111C86.7853 248.722 86.2525 246.741 84.9818 247.137L85.0023 247.164Z" fill="#6B4088"/>
<path d="M69.625 158.562C63.0327 155.146 56.905 158.992 53.4825 164.71C51.5902 167.88 50.4494 171.418 48.9465 174.772C47.5802 177.737 45.7358 180.442 43.9733 183.161C43.8807 183.317 43.8318 183.496 43.8318 183.677C43.8318 183.859 43.8807 184.037 43.9733 184.193C45.4694 186.755 47.1772 189.173 48.5571 191.81C50.4016 195.342 51.5356 199.174 53.4825 202.672C56.7342 208.506 63.1625 212.181 69.625 208.82C70.7999 208.212 69.7616 206.443 68.5866 207.05C60.997 210.992 55.935 203.567 53.2366 197.596C52.0889 195.048 51.1872 192.418 49.8961 189.945C48.6869 187.629 47.1635 185.539 45.7973 183.291C46.1662 183.92 45.6333 184.309 46.3369 183.243C47.2387 181.877 48.0858 180.511 48.9192 179.144C50.4284 176.39 51.7454 173.535 52.8609 170.598C55.4773 164.409 60.6418 156.253 68.5729 160.351C69.7479 160.959 70.7863 159.19 69.6113 158.582L69.625 158.562Z" fill="#6B4088"/>
<path d="M121.386 85.0086C119.508 78.9765 113.653 76.5992 107.792 77.4941C103.399 78.1772 99.3825 80.3223 95.2837 81.8935C92.2015 82.9402 89.0428 83.7464 85.836 84.305C85.6745 84.3533 85.5275 84.4411 85.4082 84.5603C85.289 84.6795 85.2012 84.8265 85.1529 84.9881C84.3263 88.151 83.7866 91.3481 82.7141 94.4495C81.259 98.6712 79.1959 102.531 78.3215 106.958C77.1739 112.764 80.002 118.728 85.836 120.559C87.1066 120.948 87.6395 118.974 86.3825 118.578C79.155 116.323 79.6127 108.584 81.6006 102.722C82.6799 99.5115 84.2511 96.5057 85.269 93.2745C86.0478 90.7811 86.4372 88.2056 87.093 85.6917C86.9427 86.2587 86.2322 86.2792 86.8061 86.1699L88.0972 85.9035C89.8118 85.5483 91.5128 85.1247 93.207 84.667C96.4724 83.7858 99.5055 82.2692 102.655 81.0737C108.646 78.7989 117.069 77.9177 119.446 85.5414C119.836 86.7984 121.817 86.2587 121.42 84.9949L121.386 85.0086Z" fill="#6B4088"/>
<path d="M265.964 151.778C274.463 148.916 278.022 140.54 276.997 132.124C275.726 121.638 270.2 112.156 268.328 101.786C268.278 101.62 268.185 101.47 268.059 101.35C267.934 101.23 267.779 101.145 267.611 101.103C257.446 98.7667 247.834 93.9848 237.519 92.4409C229.048 91.1703 220.44 94.9207 217.585 103.433C217.161 104.689 219.142 105.222 219.559 103.979C220.611 101.136 222.467 98.6607 224.901 96.8539C229.786 93.1172 236.221 94.0258 241.781 95.3579C250.28 97.4073 258.293 101.062 266.846 103.029C266.306 102.907 266.306 102.346 266.497 103.07L267.03 105.12C267.754 107.852 268.528 110.569 269.353 113.27C270.719 117.778 272.543 122.15 273.793 126.68C275.364 132.384 276.205 138.546 273.001 143.84C271.215 146.63 268.549 148.743 265.425 149.845C264.175 150.261 264.742 152.242 265.964 151.819V151.778Z" fill="#6B4088"/>
<path d="M265.008 219.06C268.39 220.612 272.167 221.089 275.829 220.427C281.294 219.58 285.201 215.242 288.18 210.931C293.686 202.966 296.487 193.402 302.02 185.389C302.116 185.234 302.166 185.055 302.166 184.873C302.166 184.691 302.116 184.512 302.02 184.357C297.026 176.364 293.706 167.477 288.678 159.532C283.534 151.416 274.483 145.986 265.001 150.651C263.812 151.232 264.851 153.001 266.033 152.421C268.109 151.459 270.376 150.981 272.664 151.02C274.952 151.059 277.202 151.615 279.244 152.646C283.876 154.921 286.841 160.161 289.232 164.512C293.003 171.343 295.974 178.551 300.162 185.197C299.861 184.719 300.285 184.296 299.889 184.958C299.492 185.621 299.171 186.174 298.816 186.789C297.564 188.943 296.345 191.116 295.161 193.306C293.201 196.94 291.595 200.752 289.696 204.407C287.367 208.868 284.552 213.506 280.351 216.43C276.341 219.217 270.439 219.436 266.074 217.291C264.892 216.71 263.853 218.473 265.042 219.06H265.008Z" fill="#6B4088"/>
<path d="M216.772 265.971C219.627 274.469 228.009 278.022 236.426 277.004C246.912 275.726 256.394 270.172 266.764 268.328C266.936 268.283 267.093 268.193 267.219 268.067C267.346 267.94 267.436 267.783 267.481 267.611C269.824 257.452 274.599 247.834 276.143 237.519C277.414 229.048 273.663 220.44 265.151 217.585C263.894 217.168 263.362 219.142 264.605 219.566C267.445 220.62 269.919 222.473 271.73 224.901C275.467 229.792 274.558 236.221 273.219 241.781C271.17 250.28 267.529 258.3 265.554 266.846C265.677 266.306 266.238 266.313 265.513 266.497L263.464 267.037C260.732 267.752 258.017 268.524 255.321 269.353C250.812 270.719 246.44 272.543 241.911 273.793C236.207 275.364 230.045 276.211 224.751 273.007C221.962 271.218 219.849 268.549 218.746 265.425C218.323 264.181 216.348 264.741 216.772 265.971Z" fill="#6B4088"/>
<path d="M150.262 265.205C148.788 268.443 148.313 272.046 148.896 275.555C149.661 281.136 154.122 285.085 158.508 288.07C166.261 293.33 175.483 296.069 183.21 301.425C183.366 301.517 183.544 301.566 183.726 301.566C183.907 301.566 184.085 301.517 184.241 301.425C191.947 296.595 200.493 293.371 208.192 288.575C216.273 283.541 221.855 274.653 217.189 265.205C216.608 264.024 214.839 265.062 215.42 266.244C216.351 268.261 216.817 270.462 216.784 272.684C216.751 274.905 216.219 277.091 215.228 279.08C212.96 283.766 207.557 286.738 203.171 289.122C196.606 292.681 189.747 295.557 183.394 299.533C183.763 299.307 184.392 299.711 183.838 299.383L182.472 298.563C180.464 297.381 178.435 296.24 176.392 295.147C172.71 293.132 168.878 291.486 165.134 289.566C156.513 285.126 146.765 277.119 152.093 266.271C152.674 265.089 150.904 264.051 150.324 265.233L150.262 265.205Z" fill="#6B4088"/>
<path d="M102.579 216.772C94.0809 219.634 90.5286 228.009 91.5465 236.426C92.8171 246.912 98.3778 256.387 100.222 266.764C100.267 266.936 100.358 267.093 100.484 267.219C100.61 267.346 100.767 267.436 100.94 267.481C111.098 269.824 120.716 274.599 130.997 276.143C139.468 277.414 148.076 273.663 150.924 265.151C151.348 263.894 149.367 263.362 148.95 264.605C147.898 267.448 146.042 269.923 143.608 271.73C138.724 275.474 132.295 274.558 126.735 273.226C118.236 271.177 110.217 267.522 101.671 265.554C102.21 265.677 102.203 266.238 102.012 265.513C101.821 264.789 101.664 264.147 101.479 263.464C100.76 260.732 99.9877 258.015 99.1634 255.314C97.7971 250.806 95.9732 246.434 94.7162 241.904C93.1518 236.2 92.3047 230.038 95.5086 224.744C97.2985 221.955 99.9666 219.842 103.091 218.739C104.335 218.323 103.775 216.342 102.545 216.765L102.579 216.772Z" fill="#6B4088"/>
<path d="M103.542 149.49C100.16 147.938 96.3833 147.461 92.7215 148.123C87.2564 148.971 83.3421 153.308 80.3705 157.619C74.8576 165.605 72.0636 175.182 66.5165 183.175C66.4246 183.331 66.3762 183.509 66.3762 183.691C66.3762 183.872 66.4246 184.05 66.5165 184.207C71.517 192.199 74.8371 201.087 79.8649 209.032C85.0021 217.147 94.0536 222.585 103.542 217.912C104.731 217.332 103.686 215.562 102.511 216.143C100.434 217.104 98.167 217.583 95.8791 217.544C93.5911 217.505 91.3417 216.949 89.299 215.918C84.6674 213.643 81.6957 208.403 79.3048 204.052C75.5339 197.22 72.5691 190.013 68.4088 183.366C68.7094 183.845 68.2858 184.275 68.682 183.605L69.7546 181.788C71.0115 179.63 72.2298 177.455 73.4093 175.264C75.3699 171.63 76.9821 167.818 78.8744 164.163C81.2107 159.703 84.0184 155.064 88.2197 152.14C92.2365 149.353 98.1319 149.135 102.504 151.28C103.679 151.86 104.724 150.098 103.536 149.51L103.542 149.49Z" fill="#6B4088"/>
<path d="M151.779 102.58C148.917 94.0885 140.542 90.5293 132.125 91.5472C121.639 92.8247 112.157 98.3786 101.787 100.223C101.621 100.273 101.471 100.366 101.351 100.492C101.232 100.617 101.147 100.772 101.104 100.94C98.768 111.105 93.9793 120.717 92.4354 130.998C91.1716 139.469 94.922 148.077 103.434 150.932C104.691 151.356 105.224 149.374 103.98 148.951C101.139 147.899 98.6644 146.046 96.8553 143.616C93.1117 138.731 94.0271 132.296 95.3592 126.735C97.4086 118.237 101.063 110.224 103.031 101.671C102.908 102.211 102.348 102.204 103.072 102.02L105.121 101.48C107.854 100.76 110.57 99.9885 113.271 99.1642C117.773 97.7979 122.152 95.9739 126.681 94.7238C132.385 93.1526 138.54 92.3055 143.834 95.5094C146.627 97.2966 148.743 99.9654 149.846 103.092C150.263 104.335 152.244 103.775 151.82 102.546L151.779 102.58Z" fill="#6B4088"/>
<path d="M219.053 103.542C220.608 100.161 221.085 96.383 220.42 92.7213C219.566 87.2563 215.228 83.3487 210.917 80.3703C202.932 74.8642 193.354 72.0702 185.368 66.5163C185.212 66.4244 185.034 66.376 184.852 66.376C184.671 66.376 184.493 66.4244 184.337 66.5163C176.344 71.5237 167.456 74.8369 159.512 79.8648C151.396 85.0088 145.958 94.0603 150.631 103.542C151.212 104.731 152.981 103.692 152.4 102.511C151.439 100.434 150.96 98.1668 150.999 95.8789C151.038 93.591 151.594 91.3415 152.626 89.2988C154.9 84.6672 160.14 81.6956 164.492 79.3114C171.323 75.5337 178.53 72.5689 185.177 68.3813C184.699 68.6819 184.268 68.2583 184.938 68.6545L186.762 69.7271C188.92 70.9795 191.095 72.1977 193.286 73.3818C196.92 75.3356 200.725 76.9478 204.387 78.8469C208.847 81.1764 213.479 83.9841 216.403 88.1922C219.197 92.2022 219.416 98.1044 217.264 102.47C216.683 103.651 218.452 104.69 219.033 103.501L219.053 103.542Z" fill="#6B4088"/>
<path d="M184.275 302.17C119.268 302.17 66.3799 249.282 66.3799 184.275C66.3799 119.268 119.268 66.3799 184.275 66.3799C249.282 66.3799 302.17 119.268 302.17 184.275C302.17 249.282 249.282 302.17 184.275 302.17ZM184.275 68.4293C120.395 68.4293 68.4293 120.395 68.4293 184.275C68.4293 248.155 120.395 300.121 184.275 300.121C248.155 300.121 300.121 248.155 300.121 184.275C300.121 120.395 248.155 68.4293 184.275 68.4293Z" fill="#6B4088"/>
<path d="M184.276 276.881C133.212 276.881 91.6702 235.34 91.6702 184.276C91.6702 133.211 133.212 91.6699 184.276 91.6699C235.34 91.6699 276.881 133.211 276.881 184.276C276.881 235.34 235.333 276.881 184.276 276.881ZM184.276 93.7193C134.339 93.7193 93.7196 134.345 93.7196 184.276C93.7196 234.206 134.339 274.832 184.276 274.832C234.213 274.832 274.832 234.206 274.832 184.276C274.832 134.345 234.206 93.7193 184.276 93.7193Z" fill="#6B4088"/>
<path d="M273.001 207.065L255.335 184.296L273.001 161.527H237.662L237.129 160.844L251.926 138.3H219.662L219.395 137.959L233.024 115.887H202.283L184.289 92.6943L166.282 115.887H135.541L149.169 137.959L148.903 138.3H116.618L131.414 160.844L130.882 161.527H95.5499L113.216 184.296L95.5499 207.065H130.882L131.414 207.748L116.618 230.291H148.889L149.155 230.633L135.527 252.705H166.268L184.262 275.897L202.283 252.664H233.024L219.395 230.592L219.662 230.25H251.926L237.123 207.748L237.655 207.065H273.001ZM268.82 205.015H239.254L254.037 185.969L268.82 205.015ZM234.226 161.527H206.757L205.774 160.031L217.913 140.37H218.678L234.636 160.939L234.226 161.527ZM190.41 228.221H178.113L165.175 208.526L166.077 207.065H176.802L184.275 218.678L191.749 207.065H202.44L203.348 208.533L190.41 228.221ZM204.53 210.46L215.508 228.221H192.862L204.53 210.46ZM189.064 230.271L184.282 237.56L179.5 230.271H189.064ZM175.688 228.221H153.042L164.014 210.46L175.688 228.221ZM178.141 140.37H190.437L203.376 160.058L202.467 161.527H191.749L184.275 149.914L176.802 161.527H166.077L165.175 160.058L178.141 140.37ZM164.014 158.132L153.042 140.37H175.688L164.014 158.132ZM179.487 138.321L184.268 131.032L189.05 138.321H179.487ZM192.862 140.37H215.508L204.53 158.132L192.862 140.37ZM198.327 193.067H196.237L194.645 190.499L198.519 184.296H190.792L196.21 175.524H198.3L203.936 184.296L198.327 193.067ZM205.159 186.195L209.572 193.067H200.739L205.159 186.195ZM190.628 205.015H185.553L191.735 195.117H195.062L196.005 196.647L190.628 205.015ZM197.2 198.58L201.176 205.015H193.067L197.2 198.58ZM172.539 196.647L173.482 195.117H176.815L182.964 205.015H177.895L172.539 196.647ZM175.483 205.015H167.375L171.35 198.58L175.483 205.015ZM164.608 184.296L170.244 175.524H172.341L177.758 184.296H170.059L173.933 190.499L172.341 193.067H170.244L164.608 184.296ZM167.812 193.067H158.972L163.392 186.195L167.812 193.067ZM163.392 182.403L158.972 175.504H167.812L163.392 182.403ZM177.922 163.576H190.628L196.005 171.945L195.062 173.475H173.482L172.539 171.945L177.922 163.576ZM171.35 170.011L167.375 163.576H175.483L171.35 170.011ZM179.234 161.527L184.275 153.684L189.303 161.506L179.234 161.527ZM193.06 163.576H201.176L197.2 170.011L193.06 163.576ZM192.206 190.492L190.594 193.067H185.375L189.522 186.345H189.645L192.206 190.492ZM192.056 186.345H194.789L193.422 188.552L192.056 186.345ZM193.422 192.439L193.812 193.067H193.026L193.422 192.439ZM176.344 190.492L178.899 186.345H179.056L183.21 193.067H177.984L176.344 190.492ZM175.538 193.067H174.752L175.142 192.439L175.538 193.067ZM175.128 188.552L173.762 186.345H176.494L175.128 188.552ZM181.433 186.345H187.117L184.275 190.949L181.433 186.345ZM189.303 195.096L184.262 203.178L179.22 195.096H189.303ZM188.367 184.275H180.17L184.268 177.621L188.367 184.275ZM178.947 182.328L174.739 175.497H183.155L178.947 182.328ZM185.362 175.497H193.785L189.57 182.328L185.362 175.497ZM189.303 207.065L184.268 214.907L179.234 207.065H189.303ZM200.732 175.524H209.565L205.152 182.403L200.732 175.524ZM199.414 173.475L198.423 171.924L203.581 163.576H205.63L212.134 173.475H199.414ZM164.956 163.576L170.114 171.924L169.117 173.475H156.39L162.893 163.576H164.956ZM148.049 182.431L135.657 163.576H160.434L148.049 182.431ZM155.83 174.349L162.203 184.275L155.83 194.201L149.306 184.275L155.83 174.349ZM160.441 205.015H135.664L148.056 186.161L160.441 205.015ZM156.39 195.117H169.123L170.121 196.667L164.963 205.015H162.914L156.39 195.117ZM203.588 205.015L198.43 196.667L199.42 195.117H212.161L205.657 205.015H203.588ZM220.495 186.161L232.88 205.015H208.103L220.495 186.161ZM212.748 194.222L206.382 184.275L212.755 174.349L219.272 184.275L212.748 194.222ZM208.11 163.576H232.88L220.495 182.431L208.11 163.576ZM216.772 138.3H191.496L184.255 127.281L177.007 138.3H151.731L151.601 138.089L167.238 117.936H201.217L216.902 138.068L216.772 138.3ZM150.631 140.35L162.77 160.01L161.787 161.506H134.318L133.935 160.919L149.893 140.35H150.631ZM133.211 163.576L146.826 184.296L133.211 205.015H131.92L115.846 184.296L131.92 163.556L133.211 163.576ZM134.318 207.065H161.787L162.77 208.561L150.631 228.221H149.893L133.969 207.632L134.318 207.065ZM151.779 230.291H177.055L184.296 241.31L191.537 230.291H216.813L216.943 230.503L201.306 250.655H167.286L151.649 230.503L151.779 230.291ZM217.913 228.242L205.774 208.581L206.757 207.085H234.226L234.615 207.673L218.678 228.201L217.913 228.242ZM235.333 205.015L221.718 184.296L235.333 163.576H236.665L252.739 184.296L236.665 205.015H235.333ZM268.806 163.576L254.023 182.622L239.24 163.576H268.806ZM248.114 140.35L235.818 159.109L221.26 140.35H248.114ZM229.335 117.936L218.036 136.23L203.847 117.936H229.335ZM184.248 96.0417L199.646 115.887H168.871L184.248 96.0417ZM139.161 117.936H164.71L150.515 136.23L139.161 117.936ZM120.375 140.35H147.256L132.706 159.109L120.375 140.35ZM99.6897 163.576H129.249L114.473 182.622L99.6897 163.576ZM99.6897 205.015L114.473 185.969L129.29 205.015H99.6897ZM120.375 228.242L132.706 209.483L147.256 228.242H120.375ZM139.161 250.655L150.494 232.34L164.71 250.614L139.161 250.655ZM184.248 272.55L168.843 252.705H199.646L184.248 272.55ZM229.335 250.655H203.861L218.049 232.34L229.335 250.655ZM248.114 228.242H221.253L235.804 209.483L248.114 228.242Z" fill="#6B4088"/>
<path d="M184.275 331.149C150.295 331.158 117.362 319.384 91.0897 297.833C64.8171 276.283 46.8296 246.289 40.1923 212.963C33.555 179.638 38.6785 145.041 54.6899 115.069C70.7013 85.0975 96.6097 61.6047 128.001 48.594C159.392 35.5832 194.323 33.8596 226.842 43.7167C259.362 53.5738 287.457 74.4018 306.341 102.652C325.226 130.902 333.73 164.825 330.406 198.643C327.082 232.46 312.135 264.079 288.111 288.111C274.509 301.794 258.327 312.643 240.504 320.03C222.68 327.417 203.569 331.197 184.275 331.149ZM184.275 40.8171C105.168 40.8171 40.8171 105.168 40.8171 184.275C40.8171 263.382 105.175 327.733 184.275 327.733C263.375 327.733 327.733 263.382 327.733 184.275C327.733 105.168 263.375 40.8171 184.275 40.8171Z" fill="#6B4088"/>
<path d="M184.276 326.202C106.016 326.202 42.3478 262.534 42.3478 184.275C42.3478 106.015 106.016 42.3467 184.276 42.3467C262.535 42.3467 326.203 106.015 326.203 184.275C326.203 262.534 262.535 326.202 184.276 326.202ZM184.276 44.3961C107.143 44.3961 44.3972 107.142 44.3972 184.275C44.3972 261.407 107.143 324.153 184.276 324.153C261.408 324.153 324.154 261.407 324.154 184.275C324.154 107.142 261.401 44.3961 184.276 44.3961Z" fill="#6B4088"/>
<path d="M246.324 4.0988V25.5287H343.008V122.219H364.431V246.331H343.008V343.008H246.324V364.438H122.219V343.008H25.5287V246.331H4.0988V122.219H25.5287V25.5287H122.219V4.0988H246.324ZM250.423 0H118.121V21.4299H21.4299V118.121H0V250.43H21.4299V347.107H118.121V368.537H250.423V347.107H347.107V250.43H368.53V118.121H347.107V21.4299H250.423V0Z" fill="#6B4088"/>
<path d="M242.356 360.476H126.223V339.052H29.4981V242.355H8.07501V126.222H29.4981V29.4973H126.196V8.07422H242.328V29.4973H339.046V126.195H360.476V242.328H339.046V339.052H242.356V360.476ZM129.639 357.06H238.94V335.637H335.631V238.939H357.061V129.638H335.631V32.913H238.94V11.4899H129.639V32.913H32.9138V129.611H11.4907V238.912H32.9138V335.637H129.611L129.639 357.06Z" fill="#6B4088"/>
<path d="M235.989 354.116H132.555V332.686H35.8647V235.995H14.4211V132.555H35.8647V35.8645H132.555V14.4209H235.989V35.8645H332.686V132.555H354.109V235.995H332.686V332.686H235.989V354.116ZM134.605 352.066H233.939V330.637H330.637V233.946H352.06V134.605H330.637V37.9139H233.939V16.4703H134.605V37.9139H37.9141V134.605H16.4705V233.946H37.9141V330.637H134.605V352.066Z" fill="#6B4088"/>
</svg>
